<mxfile host="65bd71144e">
    <diagram id="em8Zeh50Y8XW3zZZOUQo" name="Página-1">
        <mxGraphModel dx="767" dy="347" grid="1" gridSize="10" guides="1" tooltips="1" connect="1" arrows="1" fold="1" page="1" pageScale="1" pageWidth="827" pageHeight="1169" math="0" shadow="0">
            <root>
                <mxCell id="0"/>
                <mxCell id="1" parent="0"/>
                <mxCell id="5" style="edgeStyle=none;html=1;exitX=1;exitY=0.25;exitDx=0;exitDy=0;entryX=0.5;entryY=0;entryDx=0;entryDy=0;" parent="1" source="2" target="4" edge="1">
                    <mxGeometry relative="1" as="geometry"/>
                </mxCell>
                <mxCell id="2" value="Client" style="rounded=1;whiteSpace=wrap;html=1;labelPosition=center;verticalLabelPosition=top;align=center;verticalAlign=bottom;" parent="1" vertex="1">
                    <mxGeometry x="100" y="90" width="120" height="170" as="geometry"/>
                </mxCell>
                <mxCell id="6" style="edgeStyle=none;html=1;exitX=0;exitY=0.75;exitDx=0;exitDy=0;entryX=1;entryY=0;entryDx=0;entryDy=0;" parent="1" source="3" target="4" edge="1">
                    <mxGeometry relative="1" as="geometry"/>
                </mxCell>
                <mxCell id="3" value="Server" style="rounded=1;whiteSpace=wrap;html=1;" parent="1" vertex="1">
                    <mxGeometry x="540" y="130" width="120" height="60" as="geometry"/>
                </mxCell>
                <mxCell id="9" style="edgeStyle=none;html=1;exitX=1;exitY=0.5;exitDx=0;exitDy=0;entryX=0;entryY=1;entryDx=0;entryDy=0;" parent="1" source="4" target="3" edge="1">
                    <mxGeometry relative="1" as="geometry"/>
                </mxCell>
                <mxCell id="4" value="interceptors" style="ellipse;whiteSpace=wrap;html=1;aspect=fixed;" parent="1" vertex="1">
                    <mxGeometry x="190" y="135" width="80" height="80" as="geometry"/>
                </mxCell>
                <mxCell id="7" value="midleware" style="rounded=0;whiteSpace=wrap;html=1;rotation=0;verticalAlign=bottom;labelPosition=center;verticalLabelPosition=top;align=center;" parent="1" vertex="1">
                    <mxGeometry x="480" y="105" width="45" height="110" as="geometry"/>
                </mxCell>
            </root>
        </mxGraphModel>
    </diagram>
    <diagram id="1jQdnjdfre3_ok0Ma4lR" name="Página-2">
        <mxGraphModel dx="473" dy="1577" grid="1" gridSize="10" guides="1" tooltips="1" connect="1" arrows="1" fold="1" page="1" pageScale="1" pageWidth="827" pageHeight="1169" math="0" shadow="0">
            <root>
                <mxCell id="MhGk_zLWRISxnZbrUpsp-0"/>
                <mxCell id="MhGk_zLWRISxnZbrUpsp-1" parent="MhGk_zLWRISxnZbrUpsp-0"/>
                <mxCell id="MhGk_zLWRISxnZbrUpsp-2" value="React app" style="rounded=1;whiteSpace=wrap;html=1;labelPosition=center;verticalLabelPosition=top;align=center;verticalAlign=bottom;" vertex="1" parent="MhGk_zLWRISxnZbrUpsp-1">
                    <mxGeometry x="90" y="-50" width="360" height="740" as="geometry"/>
                </mxCell>
                <mxCell id="MhGk_zLWRISxnZbrUpsp-3" value="Header&lt;br&gt;Produtos" style="rounded=1;whiteSpace=wrap;html=1;" vertex="1" parent="MhGk_zLWRISxnZbrUpsp-1">
                    <mxGeometry x="185" y="60" width="190" height="60" as="geometry"/>
                </mxCell>
                <mxCell id="MhGk_zLWRISxnZbrUpsp-4" value="Home&lt;br&gt;Produtos" style="rounded=1;whiteSpace=wrap;html=1;" vertex="1" parent="MhGk_zLWRISxnZbrUpsp-1">
                    <mxGeometry x="185" y="130" width="190" height="60" as="geometry"/>
                </mxCell>
                <mxCell id="MhGk_zLWRISxnZbrUpsp-12" value="HOC" style="rounded=1;whiteSpace=wrap;html=1;" vertex="1" parent="MhGk_zLWRISxnZbrUpsp-1">
                    <mxGeometry x="140" y="10" width="260" height="40" as="geometry"/>
                </mxCell>
                <mxCell id="MhGk_zLWRISxnZbrUpsp-13" value="HOC" style="rounded=1;whiteSpace=wrap;html=1;" vertex="1" parent="MhGk_zLWRISxnZbrUpsp-1">
                    <mxGeometry x="140" y="520" width="260" height="40" as="geometry"/>
                </mxCell>
                <mxCell id="MhGk_zLWRISxnZbrUpsp-14" value="Context HOC&lt;br&gt;Produtos, deleteProduto" style="rounded=1;whiteSpace=wrap;html=1;" vertex="1" parent="MhGk_zLWRISxnZbrUpsp-1">
                    <mxGeometry x="110" y="-30" width="310" height="30" as="geometry"/>
                </mxCell>
                <mxCell id="MhGk_zLWRISxnZbrUpsp-15" value="Context HOC" style="rounded=1;whiteSpace=wrap;html=1;" vertex="1" parent="MhGk_zLWRISxnZbrUpsp-1">
                    <mxGeometry x="115" y="570" width="310" height="30" as="geometry"/>
                </mxCell>
                <mxCell id="MhGk_zLWRISxnZbrUpsp-18" value="Create" style="rounded=1;whiteSpace=wrap;html=1;" vertex="1" parent="MhGk_zLWRISxnZbrUpsp-1">
                    <mxGeometry x="185" y="380" width="190" height="60" as="geometry"/>
                </mxCell>
                <mxCell id="MhGk_zLWRISxnZbrUpsp-19" value="Home" style="rounded=1;whiteSpace=wrap;html=1;" vertex="1" parent="MhGk_zLWRISxnZbrUpsp-1">
                    <mxGeometry x="185" y="310" width="190" height="60" as="geometry"/>
                </mxCell>
                <mxCell id="MhGk_zLWRISxnZbrUpsp-20" value="Footer" style="rounded=1;whiteSpace=wrap;html=1;" vertex="1" parent="MhGk_zLWRISxnZbrUpsp-1">
                    <mxGeometry x="185" y="450" width="190" height="60" as="geometry"/>
                </mxCell>
                <mxCell id="MhGk_zLWRISxnZbrUpsp-29" value="Card&lt;br&gt;deleteProduct" style="rounded=1;whiteSpace=wrap;html=1;" vertex="1" parent="MhGk_zLWRISxnZbrUpsp-1">
                    <mxGeometry x="220" y="210" width="120" height="30" as="geometry"/>
                </mxCell>
                <mxCell id="MhGk_zLWRISxnZbrUpsp-31" value="Card&lt;br&gt;deleteProduct" style="rounded=1;whiteSpace=wrap;html=1;" vertex="1" parent="MhGk_zLWRISxnZbrUpsp-1">
                    <mxGeometry x="220" y="260" width="120" height="30" as="geometry"/>
                </mxCell>
            </root>
        </mxGraphModel>
    </diagram>
</mxfile>